<svg width="1440" height="1024" viewBox="0 0 1440 1024" fill="none" xmlns="http://www.w3.org/2000/svg">
<rect width="1440" height="1024" fill="#F0F5F3"/>
<rect x="20" y="85" width="65" height="920" rx="32.5" fill="white"/>
<rect x="28" y="95" width="50" height="50" rx="25" fill="#D9D9D9"/>
<rect x="28" y="155" width="50" height="50" rx="25" fill="#F0F5F3"/>
<rect x="28" y="215" width="50" height="50" rx="25" fill="#F0F5F3"/>
<rect x="28" y="275" width="50" height="50" rx="25" fill="#F0F5F3"/>
<rect x="28" y="947" width="50" height="50" rx="25" fill="#F0F5F3"/>
<path d="M55 117C54.7167 117 54.4793 116.904 54.288 116.712C54.0967 116.52 54.0007 116.283 54 116V112C54 111.717 54.096 111.479 54.288 111.288C54.48 111.097 54.7173 111.001 55 111H61C61.2833 111 61.521 111.096 61.713 111.288C61.905 111.48 62.0007 111.717 62 112V116C62 116.283 61.904 116.521 61.712 116.713C61.52 116.905 61.2827 117.001 61 117H55ZM45 121C44.7167 121 44.4793 120.904 44.288 120.712C44.0967 120.52 44.0007 120.283 44 120V112C44 111.717 44.096 111.479 44.288 111.288C44.48 111.097 44.7173 111.001 45 111H51C51.2833 111 51.521 111.096 51.713 111.288C51.905 111.48 52.0007 111.717 52 112V120C52 120.283 51.904 120.521 51.712 120.713C51.52 120.905 51.2827 121.001 51 121H45ZM55 129C54.7167 129 54.4793 128.904 54.288 128.712C54.0967 128.52 54.0007 128.283 54 128V120C54 119.717 54.096 119.479 54.288 119.288C54.48 119.097 54.7173 119.001 55 119H61C61.2833 119 61.521 119.096 61.713 119.288C61.905 119.48 62.0007 119.717 62 120V128C62 128.283 61.904 128.521 61.712 128.713C61.52 128.905 61.2827 129.001 61 129H55ZM45 129C44.7167 129 44.4793 128.904 44.288 128.712C44.0967 128.52 44.0007 128.283 44 128V124C44 123.717 44.096 123.479 44.288 123.288C44.48 123.097 44.7173 123.001 45 123H51C51.2833 123 51.521 123.096 51.713 123.288C51.905 123.48 52.0007 123.717 52 124V128C52 128.283 51.904 128.521 51.712 128.713C51.52 128.905 51.2827 129.001 51 129H45Z" fill="black"/>
<path d="M45 186V189H48V186H58V189H61V183H45V186ZM60 178H63V181H60V178ZM43 178H46V181H43V178ZM58 181H48V173C48 172.47 48.2107 171.961 48.5858 171.586C48.9609 171.211 49.4696 171 50 171H56C56.5304 171 57.0391 171.211 57.4142 171.586C57.7893 171.961 58 172.47 58 173V181Z" fill="black"/>
<path d="M44 230H46V250H44V230ZM60 230H47V250H60C61.103 250 62 249.103 62 248V232C62 230.897 61.103 230 60 230ZM59 240H50V238H59V240ZM59 236H50V234H59V236Z" fill="black"/>
<path d="M44 310V296H48V310H44ZM51 310V290H55V310H51ZM58 310V302H62V310H58Z" fill="black"/>
<path d="M20 42C20 24.3269 34.3269 10 52 10H53C70.6731 10 85 24.3269 85 42V43C85 60.6731 70.6731 75 53 75H52C34.3269 75 20 60.6731 20 43V42Z" fill="white"/>
<rect x="110" y="10" width="438" height="65" rx="32" fill="white"/>
<rect x="493" y="20" width="45" height="45" rx="22.5" fill="#F2F5F5"/>
<g clip-path="url(#clip0_40000022_932)">
<path fill-rule="evenodd" clip-rule="evenodd" d="M515.052 48.5426L507.509 41L509.395 39.1146L515.995 45.7146L522.595 39.1146L524.48 41L516.937 48.5426C516.687 48.7926 516.348 48.933 515.995 48.933C515.641 48.933 515.302 48.7926 515.052 48.5426Z" fill="#B9B8BE"/>
</g>
<path d="M145.438 50V36.9091H153.556V38.6094H147.413V42.598H152.974V44.2919H147.413V50H145.438ZM155.832 50V40.1818H157.743V50H155.832ZM156.797 38.6669C156.464 38.6669 156.179 38.5561 155.94 38.3345C155.706 38.1087 155.589 37.8402 155.589 37.5291C155.589 37.2138 155.706 36.9453 155.94 36.7237C156.179 36.4979 156.464 36.3849 156.797 36.3849C157.129 36.3849 157.413 36.4979 157.647 36.7237C157.886 36.9453 158.005 37.2138 158.005 37.5291C158.005 37.8402 157.886 38.1087 157.647 38.3345C157.413 38.5561 157.129 38.6669 156.797 38.6669ZM162.225 36.9091V50H160.314V36.9091H162.225ZM169.38 40.1818V41.7159H164.017V40.1818H169.38ZM165.455 37.8295H167.366V47.1172C167.366 47.4879 167.422 47.767 167.532 47.9545C167.643 48.1378 167.786 48.2635 167.961 48.3317C168.14 48.3956 168.333 48.4276 168.542 48.4276C168.696 48.4276 168.83 48.4169 168.945 48.3956C169.06 48.3743 169.15 48.3572 169.213 48.3445L169.559 49.9233C169.448 49.9659 169.29 50.0085 169.086 50.0511C168.881 50.098 168.625 50.1236 168.319 50.1278C167.816 50.1364 167.347 50.0469 166.912 49.8594C166.478 49.6719 166.126 49.3821 165.858 48.9901C165.589 48.598 165.455 48.1058 165.455 47.5135V37.8295ZM175.62 50.1982C174.653 50.1982 173.819 49.9915 173.121 49.5781C172.426 49.1605 171.889 48.5746 171.51 47.8203C171.135 47.0618 170.947 46.1733 170.947 45.1548C170.947 44.1491 171.135 43.2628 171.51 42.4957C171.889 41.7287 172.417 41.13 173.095 40.6996C173.777 40.2692 174.574 40.054 175.486 40.054C176.04 40.054 176.577 40.1456 177.096 40.3288C177.616 40.5121 178.083 40.7997 178.496 41.1918C178.91 41.5838 179.236 42.093 179.474 42.7195C179.713 43.3416 179.832 44.098 179.832 44.9886V45.6662H172.028V44.2344H177.959C177.959 43.7315 177.857 43.2862 177.653 42.8984C177.448 42.5064 177.16 42.1974 176.79 41.9716C176.423 41.7457 175.993 41.6328 175.498 41.6328C174.961 41.6328 174.493 41.7649 174.092 42.0291C173.696 42.2891 173.389 42.63 173.172 43.0518C172.959 43.4695 172.852 43.9233 172.852 44.4134V45.532C172.852 46.1882 172.967 46.7464 173.197 47.2067C173.432 47.6669 173.758 48.0185 174.175 48.2614C174.593 48.5 175.081 48.6193 175.639 48.6193C176.001 48.6193 176.331 48.5682 176.63 48.4659C176.928 48.3594 177.186 48.2017 177.403 47.9929C177.621 47.7841 177.787 47.5263 177.902 47.2195L179.711 47.5455C179.566 48.0781 179.306 48.5447 178.931 48.9453C178.56 49.3416 178.094 49.6506 177.531 49.8722C176.973 50.0895 176.336 50.1982 175.62 50.1982ZM181.953 50V40.1818H183.8V41.7415H183.902C184.081 41.2131 184.397 40.7976 184.848 40.495C185.304 40.1882 185.82 40.0348 186.395 40.0348C186.515 40.0348 186.655 40.0391 186.817 40.0476C186.983 40.0561 187.113 40.0668 187.207 40.0795V41.9077C187.13 41.8864 186.994 41.8629 186.798 41.8374C186.602 41.8075 186.406 41.7926 186.21 41.7926C185.758 41.7926 185.355 41.8885 185.002 42.0803C184.652 42.2678 184.375 42.5298 184.171 42.8665C183.966 43.1989 183.864 43.5781 183.864 44.0043V50H181.953ZM188.995 50.1214C188.646 50.1214 188.345 49.9979 188.094 49.7507C187.843 49.4993 187.717 49.1967 187.717 48.843C187.717 48.4936 187.843 48.1953 188.094 47.9482C188.345 47.6967 188.646 47.571 188.995 47.571C189.345 47.571 189.645 47.6967 189.896 47.9482C190.148 48.1953 190.274 48.4936 190.274 48.843C190.274 49.0774 190.214 49.2926 190.095 49.4886C189.98 49.6804 189.826 49.8338 189.634 49.9489C189.443 50.0639 189.23 50.1214 188.995 50.1214ZM194.093 50.1214C193.743 50.1214 193.443 49.9979 193.192 49.7507C192.94 49.4993 192.814 49.1967 192.814 48.843C192.814 48.4936 192.94 48.1953 193.192 47.9482C193.443 47.6967 193.743 47.571 194.093 47.571C194.442 47.571 194.743 47.6967 194.994 47.9482C195.246 48.1953 195.371 48.4936 195.371 48.843C195.371 49.0774 195.312 49.2926 195.192 49.4886C195.077 49.6804 194.924 49.8338 194.732 49.9489C194.54 50.0639 194.327 50.1214 194.093 50.1214ZM199.191 50.1214C198.841 50.1214 198.541 49.9979 198.289 49.7507C198.038 49.4993 197.912 49.1967 197.912 48.843C197.912 48.4936 198.038 48.1953 198.289 47.9482C198.541 47.6967 198.841 47.571 199.191 47.571C199.54 47.571 199.84 47.6967 200.092 47.9482C200.343 48.1953 200.469 48.4936 200.469 48.843C200.469 49.0774 200.409 49.2926 200.29 49.4886C200.175 49.6804 200.021 49.8338 199.83 49.9489C199.638 50.0639 199.425 50.1214 199.191 50.1214Z" fill="#AFABAF"/>
<g clip-path="url(#clip1_40000022_932)">
<rect x="31" y="23" width="40" height="40" rx="20" fill="#6750A4"/>
<path d="M47 49L51 45.95L55 49L53.5 44.05L57.5 41.2H52.6L51 36L49.4 41.2H44.5L48.5 44.05L47 49ZM51 53C49.6167 53 48.3167 52.7375 47.1 52.2125C45.8833 51.6875 44.825 50.975 43.925 50.075C43.025 49.175 42.3125 48.1167 41.7875 46.9C41.2625 45.6833 41 44.3833 41 43C41 41.6167 41.2625 40.3167 41.7875 39.1C42.3125 37.8833 43.025 36.825 43.925 35.925C44.825 35.025 45.8833 34.3125 47.1 33.7875C48.3167 33.2625 49.6167 33 51 33C52.3833 33 53.6833 33.2625 54.9 33.7875C56.1167 34.3125 57.175 35.025 58.075 35.925C58.975 36.825 59.6875 37.8833 60.2125 39.1C60.7375 40.3167 61 41.6167 61 43C61 44.3833 60.7375 45.6833 60.2125 46.9C59.6875 48.1167 58.975 49.175 58.075 50.075C57.175 50.975 56.1167 51.6875 54.9 52.2125C53.6833 52.7375 52.3833 53 51 53Z" fill="white"/>
</g>
<defs>
<clipPath id="clip0_40000022_932">
<rect width="16" height="32" fill="white" transform="translate(532 35) rotate(90)"/>
</clipPath>
<clipPath id="clip1_40000022_932">
<rect x="31" y="23" width="40" height="40" rx="20" fill="white"/>
</clipPath>
</defs>
</svg>
