<svg width="138" height="104" viewBox="0 0 138 104" fill="none" xmlns="http://www.w3.org/2000/svg">
  <path
    d="M28.75 91H109.25C115.601 91 120.75 87.1198 120.75 82.3333V21.6667C120.75 16.8802 115.601 13 109.25 13H28.75C22.3987 13 17.25 16.8802 17.25 21.6667V82.3333C17.25 87.1198 22.3987 91 28.75 91ZM28.75 91L92 43.3333L120.75 65M57.5 36.8333C57.5 40.4232 53.6385 43.3333 48.875 43.3333C44.1115 43.3333 40.25 40.4232 40.25 36.8333C40.25 33.2435 44.1115 30.3333 48.875 30.3333C53.6385 30.3333 57.5 33.2435 57.5 36.8333Z"
    stroke="#1E1E1E"
    stroke-width="4"
    stroke-linecap="round"
    stroke-linejoin="round"
  />
</svg>

